<?xml version="1.0" standalone="no"?>
<!DOCTYPE svg PUBLIC "-//W3C//DTD SVG 20010904//EN"
 "http://www.w3.org/TR/2001/REC-SVG-20010904/DTD/svg10.dtd">
<svg version="1.0" xmlns="http://www.w3.org/2000/svg"
 width="800.000000pt" height="800.000000pt" viewBox="0 0 800.000000 800.000000"
 preserveAspectRatio="xMidYMid meet">
<metadata>
Created by potrace 1.14, written by Peter Selinger 2001-2017
</metadata>
<g transform="translate(0.000000,800.000000) scale(0.100000,-0.100000)"
fill="#000000" stroke="none">
<path d="M6647 7953 c-1 0 -474 -4 -1052 -7 -577 -4 -1403 -9 -1835 -11 -432
-3 -1086 -7 -1455 -10 -369 -2 -789 -4 -935 -5 -146 -1 -282 -6 -303 -11 -43
-11 -101 -58 -125 -103 -18 -33 -18 -23 -12 -1501 1 -269 1 -497 1 -506 -1
-16 -45 -28 -166 -45 -16 -3 -41 -7 -55 -10 -28 -7 -28 -7 -155 -29 -49 -8
-103 -17 -120 -20 -16 -3 -52 -10 -80 -15 -27 -5 -63 -12 -80 -15 -126 -21
-170 -47 -206 -122 -18 -37 -21 -56 -16 -111 3 -37 8 -78 11 -92 3 -14 13 -65
22 -115 19 -114 19 -113 38 -215 8 -47 18 -101 21 -120 3 -19 17 -94 30 -165
28 -153 32 -177 41 -230 3 -22 7 -42 9 -45 2 -3 6 -26 10 -50 3 -25 12 -79 20
-120 19 -99 86 -468 90 -500 4 -32 78 -441 90 -500 3 -14 8 -41 11 -60 5 -30
13 -77 49 -275 3 -16 10 -59 15 -94 6 -36 12 -67 14 -70 2 -3 7 -28 10 -55 4
-27 13 -83 21 -125 8 -42 17 -92 20 -111 3 -19 8 -42 10 -50 2 -8 6 -31 9 -50
3 -19 7 -44 9 -55 3 -11 7 -36 10 -55 14 -82 17 -96 22 -120 3 -14 8 -41 11
-60 3 -19 17 -96 30 -170 14 -74 36 -198 50 -275 13 -77 26 -153 29 -170 3
-16 12 -64 19 -105 32 -170 45 -243 52 -295 3 -22 19 -116 35 -208 16 -93 32
-185 35 -205 21 -136 117 -186 285 -147 41 9 81 18 89 20 8 1 31 5 50 9 19 3
46 8 60 11 14 3 61 12 105 20 44 8 94 17 110 20 49 10 292 55 410 76 61 11
155 29 210 40 55 11 116 22 135 25 19 3 42 7 50 9 8 3 33 7 55 11 22 3 42 7
45 9 3 2 26 6 50 10 25 3 52 8 60 10 8 2 31 7 50 10 19 3 58 10 85 15 28 5 62
12 78 15 68 13 90 17 217 41 74 14 146 28 160 30 14 2 59 11 100 19 41 8 91
17 110 20 48 8 185 34 240 46 25 5 62 12 84 15 21 3 48 8 60 10 33 7 118 24
151 30 17 3 66 12 110 20 44 9 94 18 110 20 17 3 48 9 70 14 22 5 41 5 43 1 2
-5 29 -53 61 -108 147 -248 347 -459 591 -623 49 -33 94 -60 99 -60 5 0 11 -3
13 -8 5 -11 181 -97 268 -130 233 -90 404 -122 665 -127 252 -4 435 23 663
100 649 219 1140 780 1277 1458 13 69 17 94 30 197 8 60 8 279 0 355 -26 270
-99 514 -222 744 l-45 86 -3 540 c-5 762 -16 2495 -20 3105 -2 283 -4 662 -5
842 -1 355 -2 359 -59 421 -58 63 -44 62 -514 62 -236 0 -429 -1 -430 -2z"/>
</g>
</svg>
